<svg height="512" viewBox="0 0 512 512" width="512" xmlns="http://www.w3.org/2000/svg"><g id="Flat"><path d="m367.029 331.716h33.941v56.569h-33.941z" fill="#396795" transform="matrix(.707 -.707 .707 .707 -142.087 376.971)"/><path d="m432 352-56 56 88 88h32v-80z" fill="#2d80b3"/><circle cx="256" cy="232" fill="#8acce7" r="151.821"/><path d="m312 200v.402a37.65682 37.65682 0 0 0 11.02943 26.62739 16.97054 16.97054 0 0 1 4.97056 12 16.97054 16.97054 0 0 1 -16.97054 16.97061h-110.0589a16.97054 16.97054 0 0 1 -16.97055-16.97055 16.97054 16.97054 0 0 1 4.97056-12 37.65682 37.65682 0 0 0 11.02944-26.62745v-16.4021a55.99994 55.99994 0 0 1 55.99994-55.9999h.00012a55.99994 55.99994 0 0 1 55.99994 55.99994z" fill="#2f4054"/><path d="m344 336v24l-88 24-88-24v-24.00006a65.224 65.224 0 0 1 64.56849-55.99994h46.863a65.224 65.224 0 0 1 64.56851 56z" fill="#e88604"/><path d="m208 224a16 16 0 0 1 -16-16 16 16 0 0 1 16-16h8a22.1988 22.1988 0 0 0 21.05962-15.17892l3.76143-11.28428c4.86238-14.58714 25.49548-14.58714 30.35786 0l3.76143 11.28428a22.1988 22.1988 0 0 0 21.05966 15.17892h8a16 16 0 0 1 16 16 16 16 0 0 1 -16 16z" fill="#f2c194"/><path d="m272 240v40a16 16 0 0 1 -32 0v-40z" fill="#f4ceaf"/><path d="m272 240v21.26a48.08549 48.08549 0 0 1 -32 0v-21.26z" fill="#f2c194"/><path d="m296 152v64a40 40 0 0 1 -40 40 40 40 0 0 1 -40-40v-64z" fill="#f4ceaf"/><circle cx="240" cy="208" fill="#2f4054" r="8"/><circle cx="272" cy="208" fill="#2f4054" r="8"/><path d="m312 184v8h-16a22.18723 22.18723 0 0 1 -21.06006-15.17993l-3.76-11.28c-4.85986-14.59009-25.5-14.59009-30.35986 0l-3.76 11.28a22.19785 22.19785 0 0 1 -21.06008 15.17993h-16v-8a56 56 0 1 1 112 0z" fill="#2f4054"/><path d="m256 64a168 168 0 1 0 168 168 168.00488 168.00488 0 0 0 -168-168zm0 304c-74.99 0-136-61.01-136-136s61.01-136 136-136 136 61.01 136 136-61.01 136-136 136z" fill="#2d80b3"/><path d="m341.65723 157.65674-11.31446-11.31348 64-64a8.00076 8.00076 0 0 1 5.65723-2.34326h96v16h-92.68652z" fill="#e44042"/><g fill="#379ec3"><path d="m400 16h32v16h-32z"/><path d="m448 16h48v16h-48z"/><path d="m392 48h32v16h-32z"/><path d="m440 48h56v16h-56z"/></g><path d="m170.34277 157.65674-61.65625-61.65674h-92.68652v-16h96a8.00076 8.00076 0 0 1 5.65723 2.34326l64 64z" fill="#e44042"/><path d="m32 16h32v16h-32z" fill="#379ec3"/><path d="m80 16h48v16h-48z" fill="#379ec3"/><path d="m16 48h32v16h-32z" fill="#379ec3"/><path d="m64 48h64v16h-64z" fill="#379ec3"/><path d="m120 376h-104v-16h100.68652l29.65625-29.65674 11.31446 11.31348-32 32a8.00076 8.00076 0 0 1 -5.65723 2.34326z" fill="#e44042"/><path d="m40 392h48v16h-48z" fill="#379ec3"/><path d="m104 392h40v16h-40z" fill="#379ec3"/><path d="m16 424h48v16h-48z" fill="#379ec3"/><path d="m80 424h32v16h-32z" fill="#379ec3"/></g></svg>